<mxfile host="app.diagrams.net" modified="2022-07-10T03:05:09.582Z" agent="5.0 (Windows NT 10.0; Win64; x64) AppleWebKit/537.36 (KHTML, like Gecko) Chrome/103.0.0.0 Safari/537.36" etag="JK2UmlvMVt4VgpSCkt8-" version="20.0.1" type="github">
  <diagram id="o29gb3Ic2FPr0FHYQHIU" name="Page-1">
    <mxGraphModel dx="2249" dy="706" grid="1" gridSize="10" guides="1" tooltips="1" connect="1" arrows="1" fold="1" page="1" pageScale="1" pageWidth="827" pageHeight="1169" math="0" shadow="0">
      <root>
        <mxCell id="0" />
        <mxCell id="1" parent="0" />
        <mxCell id="gs8Vzt0vd-F7efCg0EDN-1" value="解决方法" style="rounded=0;whiteSpace=wrap;html=1;" vertex="1" parent="1">
          <mxGeometry x="480" y="160" width="120" height="60" as="geometry" />
        </mxCell>
        <mxCell id="gs8Vzt0vd-F7efCg0EDN-9" style="edgeStyle=orthogonalEdgeStyle;rounded=0;orthogonalLoop=1;jettySize=auto;html=1;entryX=0.5;entryY=0;entryDx=0;entryDy=0;" edge="1" parent="1" source="gs8Vzt0vd-F7efCg0EDN-2" target="gs8Vzt0vd-F7efCg0EDN-6">
          <mxGeometry relative="1" as="geometry" />
        </mxCell>
        <mxCell id="gs8Vzt0vd-F7efCg0EDN-2" value="问题" style="rounded=0;whiteSpace=wrap;html=1;" vertex="1" parent="1">
          <mxGeometry x="-10" y="160" width="120" height="60" as="geometry" />
        </mxCell>
        <mxCell id="gs8Vzt0vd-F7efCg0EDN-12" style="edgeStyle=orthogonalEdgeStyle;rounded=0;orthogonalLoop=1;jettySize=auto;html=1;" edge="1" parent="1" source="gs8Vzt0vd-F7efCg0EDN-3" target="gs8Vzt0vd-F7efCg0EDN-4">
          <mxGeometry relative="1" as="geometry" />
        </mxCell>
        <mxCell id="gs8Vzt0vd-F7efCg0EDN-3" value="利益启迪" style="rounded=0;whiteSpace=wrap;html=1;" vertex="1" parent="1">
          <mxGeometry x="320" y="360" width="120" height="60" as="geometry" />
        </mxCell>
        <mxCell id="gs8Vzt0vd-F7efCg0EDN-13" style="edgeStyle=orthogonalEdgeStyle;rounded=0;orthogonalLoop=1;jettySize=auto;html=1;entryX=0;entryY=0.5;entryDx=0;entryDy=0;" edge="1" parent="1" source="gs8Vzt0vd-F7efCg0EDN-4" target="gs8Vzt0vd-F7efCg0EDN-1">
          <mxGeometry relative="1" as="geometry">
            <mxPoint x="520" y="190" as="targetPoint" />
            <Array as="points">
              <mxPoint x="380" y="190" />
            </Array>
          </mxGeometry>
        </mxCell>
        <mxCell id="gs8Vzt0vd-F7efCg0EDN-4" value="利益协调" style="rounded=0;whiteSpace=wrap;html=1;" vertex="1" parent="1">
          <mxGeometry x="320" y="240" width="120" height="60" as="geometry" />
        </mxCell>
        <mxCell id="gs8Vzt0vd-F7efCg0EDN-11" style="edgeStyle=orthogonalEdgeStyle;rounded=0;orthogonalLoop=1;jettySize=auto;html=1;exitX=1;exitY=0.5;exitDx=0;exitDy=0;" edge="1" parent="1" source="gs8Vzt0vd-F7efCg0EDN-5" target="gs8Vzt0vd-F7efCg0EDN-3">
          <mxGeometry relative="1" as="geometry" />
        </mxCell>
        <mxCell id="gs8Vzt0vd-F7efCg0EDN-5" value="利益扩大" style="rounded=0;whiteSpace=wrap;html=1;" vertex="1" parent="1">
          <mxGeometry x="120" y="360" width="120" height="60" as="geometry" />
        </mxCell>
        <mxCell id="gs8Vzt0vd-F7efCg0EDN-10" style="edgeStyle=orthogonalEdgeStyle;rounded=0;orthogonalLoop=1;jettySize=auto;html=1;" edge="1" parent="1" source="gs8Vzt0vd-F7efCg0EDN-6" target="gs8Vzt0vd-F7efCg0EDN-5">
          <mxGeometry relative="1" as="geometry" />
        </mxCell>
        <mxCell id="gs8Vzt0vd-F7efCg0EDN-6" value="利益自述" style="rounded=0;whiteSpace=wrap;html=1;" vertex="1" parent="1">
          <mxGeometry x="120" y="240" width="120" height="60" as="geometry" />
        </mxCell>
      </root>
    </mxGraphModel>
  </diagram>
</mxfile>
